<?xml version="1.0" encoding="UTF-8" standalone="no"?>
<!DOCTYPE svg PUBLIC "-//W3C//DTD SVG 1.1//EN"
 "http://www.w3.org/Graphics/SVG/1.1/DTD/svg11.dtd">
<!-- Generated by graphviz version 3.0.0 (20220226.1711)
 -->
<!-- Title: dependencies Pages: 1 -->
<svg width="3343pt" height="247pt"
 viewBox="0.00 0.00 3343.00 246.80" xmlns="http://www.w3.org/2000/svg" xmlns:xlink="http://www.w3.org/1999/xlink">
<g id="graph0" class="graph" transform="scale(1 1) rotate(0) translate(4 242.8)">
<title>dependencies</title>
<polygon fill="white" stroke="transparent" points="-4,4 -4,-242.8 3339,-242.8 3339,4 -4,4"/>
<text text-anchor="middle" x="1667.5" y="-8.2" font-family="sans-serif" font-size="14.00">dependencies</text>
<g id="clust1" class="cluster">
<title>cluster_AppModule</title>
<polygon fill="none" stroke="black" stroke-dasharray="1,5" points="8,-32.8 8,-230.8 3327,-230.8 3327,-32.8 8,-32.8"/>
</g>
<g id="clust2" class="cluster">
<title>cluster_AppModule_declarations</title>
<polygon fill="none" stroke="black" points="168,-40.8 168,-92.8 3319,-92.8 3319,-40.8 168,-40.8"/>
</g>
<g id="clust24" class="cluster">
<title>cluster_AppModule_imports</title>
<polygon fill="none" stroke="black" points="16,-40.8 16,-92.8 160,-92.8 160,-40.8 16,-40.8"/>
</g>
<g id="clust26" class="cluster">
<title>cluster_AppModule_bootstrap</title>
<polygon fill="none" stroke="black" points="1644,-170.8 1644,-222.8 1768,-222.8 1768,-170.8 1644,-170.8"/>
</g>
<!-- AppComponent -->
<g id="node1" class="node">
<title>AppComponent</title>
<polygon fill="#ffffb3" stroke="black" points="3310.94,-84.8 3205.06,-84.8 3205.06,-48.8 3310.94,-48.8 3310.94,-84.8"/>
<text text-anchor="middle" x="3258" y="-62.6" font-family="Times,serif" font-size="14.00">AppComponent</text>
</g>
<!-- AppModule -->
<g id="node22" class="node">
<title>AppModule</title>
<polygon fill="#8dd3c7" stroke="black" points="1747.66,-149.8 1744.66,-153.8 1723.66,-153.8 1720.66,-149.8 1664.34,-149.8 1664.34,-113.8 1747.66,-113.8 1747.66,-149.8"/>
<text text-anchor="middle" x="1706" y="-127.6" font-family="Times,serif" font-size="14.00">AppModule</text>
</g>
<!-- AppComponent&#45;&gt;AppModule -->
<g id="edge1" class="edge">
<title>AppComponent&#45;&gt;AppModule</title>
<path fill="none" stroke="black" d="M3258,-84.95C3258,-108.56 3258,-146.8 3258,-146.8 3258,-146.8 1757.91,-146.8 1757.91,-146.8"/>
<polygon fill="black" stroke="black" points="1757.91,-143.3 1747.91,-146.8 1757.91,-150.3 1757.91,-143.3"/>
</g>
<!-- BlogComponent -->
<g id="node2" class="node">
<title>BlogComponent</title>
<polygon fill="#ffffb3" stroke="black" points="3187.06,-84.8 3078.94,-84.8 3078.94,-48.8 3187.06,-48.8 3187.06,-84.8"/>
<text text-anchor="middle" x="3133" y="-62.6" font-family="Times,serif" font-size="14.00">BlogComponent</text>
</g>
<!-- BlogComponent&#45;&gt;AppModule -->
<g id="edge2" class="edge">
<title>BlogComponent&#45;&gt;AppModule</title>
<path fill="none" stroke="black" d="M3133,-85.05C3133,-107.82 3133,-143.8 3133,-143.8 3133,-143.8 1757.93,-143.8 1757.93,-143.8"/>
<polygon fill="black" stroke="black" points="1757.93,-140.3 1747.93,-143.8 1757.93,-147.3 1757.93,-140.3"/>
</g>
<!-- BuscaProdutoComponent -->
<g id="node3" class="node">
<title>BuscaProdutoComponent</title>
<polygon fill="#ffffb3" stroke="black" points="3060.88,-84.8 2901.12,-84.8 2901.12,-48.8 3060.88,-48.8 3060.88,-84.8"/>
<text text-anchor="middle" x="2981" y="-62.6" font-family="Times,serif" font-size="14.00">BuscaProdutoComponent</text>
</g>
<!-- BuscaProdutoComponent&#45;&gt;AppModule -->
<g id="edge3" class="edge">
<title>BuscaProdutoComponent&#45;&gt;AppModule</title>
<path fill="none" stroke="black" d="M2981,-85.09C2981,-107.01 2981,-140.8 2981,-140.8 2981,-140.8 1757.7,-140.8 1757.7,-140.8"/>
<polygon fill="black" stroke="black" points="1757.7,-137.3 1747.7,-140.8 1757.7,-144.3 1757.7,-137.3"/>
</g>
<!-- CadastrarComponent -->
<g id="node4" class="node">
<title>CadastrarComponent</title>
<polygon fill="#ffffb3" stroke="black" points="2883.47,-84.8 2748.53,-84.8 2748.53,-48.8 2883.47,-48.8 2883.47,-84.8"/>
<text text-anchor="middle" x="2816" y="-62.6" font-family="Times,serif" font-size="14.00">CadastrarComponent</text>
</g>
<!-- CadastrarComponent&#45;&gt;AppModule -->
<g id="edge4" class="edge">
<title>CadastrarComponent&#45;&gt;AppModule</title>
<path fill="none" stroke="black" d="M2816,-84.83C2816,-105.57 2816,-136.8 2816,-136.8 2816,-136.8 1757.82,-136.8 1757.82,-136.8"/>
<polygon fill="black" stroke="black" points="1757.82,-133.3 1747.82,-136.8 1757.82,-140.3 1757.82,-133.3"/>
</g>
<!-- CarrosselComponent -->
<g id="node5" class="node">
<title>CarrosselComponent</title>
<polygon fill="#ffffb3" stroke="black" points="2730.21,-84.8 2595.79,-84.8 2595.79,-48.8 2730.21,-48.8 2730.21,-84.8"/>
<text text-anchor="middle" x="2663" y="-62.6" font-family="Times,serif" font-size="14.00">CarrosselComponent</text>
</g>
<!-- CarrosselComponent&#45;&gt;AppModule -->
<g id="edge5" class="edge">
<title>CarrosselComponent&#45;&gt;AppModule</title>
<path fill="none" stroke="black" d="M2663,-85.11C2663,-104.95 2663,-133.8 2663,-133.8 2663,-133.8 1757.74,-133.8 1757.74,-133.8"/>
<polygon fill="black" stroke="black" points="1757.74,-130.3 1747.74,-133.8 1757.74,-137.3 1757.74,-130.3"/>
</g>
<!-- ComponentsComponent -->
<g id="node6" class="node">
<title>ComponentsComponent</title>
<polygon fill="#ffffb3" stroke="black" points="2578.11,-84.8 2425.89,-84.8 2425.89,-48.8 2578.11,-48.8 2578.11,-84.8"/>
<text text-anchor="middle" x="2502" y="-62.6" font-family="Times,serif" font-size="14.00">ComponentsComponent</text>
</g>
<!-- ComponentsComponent&#45;&gt;AppModule -->
<g id="edge6" class="edge">
<title>ComponentsComponent&#45;&gt;AppModule</title>
<path fill="none" stroke="black" d="M2502,-84.97C2502,-103.89 2502,-130.8 2502,-130.8 2502,-130.8 1757.68,-130.8 1757.68,-130.8"/>
<polygon fill="black" stroke="black" points="1757.68,-127.3 1747.68,-130.8 1757.68,-134.3 1757.68,-127.3"/>
</g>
<!-- DestaqueComponent -->
<g id="node7" class="node">
<title>DestaqueComponent</title>
<polygon fill="#ffffb3" stroke="black" points="2407.92,-84.8 2274.08,-84.8 2274.08,-48.8 2407.92,-48.8 2407.92,-84.8"/>
<text text-anchor="middle" x="2341" y="-62.6" font-family="Times,serif" font-size="14.00">DestaqueComponent</text>
</g>
<!-- DestaqueComponent&#45;&gt;AppModule -->
<g id="edge7" class="edge">
<title>DestaqueComponent&#45;&gt;AppModule</title>
<path fill="none" stroke="black" d="M2341,-85.1C2341,-103.07 2341,-127.8 2341,-127.8 2341,-127.8 1757.66,-127.8 1757.66,-127.8"/>
<polygon fill="black" stroke="black" points="1757.66,-124.3 1747.66,-127.8 1757.66,-131.3 1757.66,-124.3"/>
</g>
<!-- FooterComponent -->
<g id="node8" class="node">
<title>FooterComponent</title>
<polygon fill="#ffffb3" stroke="black" points="2255.88,-84.8 2138.12,-84.8 2138.12,-48.8 2255.88,-48.8 2255.88,-84.8"/>
<text text-anchor="middle" x="2197" y="-62.6" font-family="Times,serif" font-size="14.00">FooterComponent</text>
</g>
<!-- FooterComponent&#45;&gt;AppModule -->
<g id="edge8" class="edge">
<title>FooterComponent&#45;&gt;AppModule</title>
<path fill="none" stroke="black" d="M2197,-84.84C2197,-101.53 2197,-123.8 2197,-123.8 2197,-123.8 1757.86,-123.8 1757.86,-123.8"/>
<polygon fill="black" stroke="black" points="1757.86,-120.3 1747.86,-123.8 1757.86,-127.3 1757.86,-120.3"/>
</g>
<!-- HeaderComponent -->
<g id="node9" class="node">
<title>HeaderComponent</title>
<polygon fill="#ffffb3" stroke="black" points="2119.75,-84.8 1998.25,-84.8 1998.25,-48.8 2119.75,-48.8 2119.75,-84.8"/>
<text text-anchor="middle" x="2059" y="-62.6" font-family="Times,serif" font-size="14.00">HeaderComponent</text>
</g>
<!-- HeaderComponent&#45;&gt;AppModule -->
<g id="edge9" class="edge">
<title>HeaderComponent&#45;&gt;AppModule</title>
<path fill="none" stroke="black" d="M2059,-85.08C2059,-100.75 2059,-120.8 2059,-120.8 2059,-120.8 1757.88,-120.8 1757.88,-120.8"/>
<polygon fill="black" stroke="black" points="1757.88,-117.3 1747.88,-120.8 1757.88,-124.3 1757.88,-117.3"/>
</g>
<!-- HomeComponent -->
<g id="node10" class="node">
<title>HomeComponent</title>
<polygon fill="#ffffb3" stroke="black" points="1979.55,-84.8 1864.45,-84.8 1864.45,-48.8 1979.55,-48.8 1979.55,-84.8"/>
<text text-anchor="middle" x="1922" y="-62.6" font-family="Times,serif" font-size="14.00">HomeComponent</text>
</g>
<!-- HomeComponent&#45;&gt;AppModule -->
<g id="edge10" class="edge">
<title>HomeComponent&#45;&gt;AppModule</title>
<path fill="none" stroke="black" d="M1922,-84.92C1922,-99.58 1922,-117.8 1922,-117.8 1922,-117.8 1757.9,-117.8 1757.9,-117.8"/>
<polygon fill="black" stroke="black" points="1757.9,-114.3 1747.9,-117.8 1757.9,-121.3 1757.9,-114.3"/>
</g>
<!-- JogosAppComponent -->
<g id="node11" class="node">
<title>JogosAppComponent</title>
<polygon fill="#ffffb3" stroke="black" points="1846.84,-84.8 1709.16,-84.8 1709.16,-48.8 1846.84,-48.8 1846.84,-84.8"/>
<text text-anchor="middle" x="1778" y="-62.6" font-family="Times,serif" font-size="14.00">JogosAppComponent</text>
</g>
<!-- JogosAppComponent&#45;&gt;AppModule -->
<g id="edge11" class="edge">
<title>JogosAppComponent&#45;&gt;AppModule</title>
<path fill="none" stroke="black" d="M1728.58,-84.91C1728.58,-84.91 1728.58,-103.79 1728.58,-103.79"/>
<polygon fill="black" stroke="black" points="1725.08,-103.79 1728.58,-113.79 1732.08,-103.79 1725.08,-103.79"/>
</g>
<!-- LoginComponent -->
<g id="node12" class="node">
<title>LoginComponent</title>
<polygon fill="#ffffb3" stroke="black" points="1691.27,-84.8 1576.73,-84.8 1576.73,-48.8 1691.27,-48.8 1691.27,-84.8"/>
<text text-anchor="middle" x="1634" y="-62.6" font-family="Times,serif" font-size="14.00">LoginComponent</text>
</g>
<!-- LoginComponent&#45;&gt;AppModule -->
<g id="edge12" class="edge">
<title>LoginComponent&#45;&gt;AppModule</title>
<path fill="none" stroke="black" d="M1677.78,-84.91C1677.78,-84.91 1677.78,-103.79 1677.78,-103.79"/>
<polygon fill="black" stroke="black" points="1674.28,-103.79 1677.78,-113.79 1681.28,-103.79 1674.28,-103.79"/>
</g>
<!-- NavComponent -->
<g id="node13" class="node">
<title>NavComponent</title>
<polygon fill="#ffffb3" stroke="black" points="1558.16,-84.8 1453.84,-84.8 1453.84,-48.8 1558.16,-48.8 1558.16,-84.8"/>
<text text-anchor="middle" x="1506" y="-62.6" font-family="Times,serif" font-size="14.00">NavComponent</text>
</g>
<!-- NavComponent&#45;&gt;AppModule -->
<g id="edge13" class="edge">
<title>NavComponent&#45;&gt;AppModule</title>
<path fill="none" stroke="black" d="M1506,-84.92C1506,-99.58 1506,-117.8 1506,-117.8 1506,-117.8 1654.07,-117.8 1654.07,-117.8"/>
<polygon fill="black" stroke="black" points="1654.07,-121.3 1664.07,-117.8 1654.07,-114.3 1654.07,-121.3"/>
</g>
<!-- PedidosComponent -->
<g id="node14" class="node">
<title>PedidosComponent</title>
<polygon fill="#ffffb3" stroke="black" points="1435.67,-84.8 1310.33,-84.8 1310.33,-48.8 1435.67,-48.8 1435.67,-84.8"/>
<text text-anchor="middle" x="1373" y="-62.6" font-family="Times,serif" font-size="14.00">PedidosComponent</text>
</g>
<!-- PedidosComponent&#45;&gt;AppModule -->
<g id="edge14" class="edge">
<title>PedidosComponent&#45;&gt;AppModule</title>
<path fill="none" stroke="black" d="M1373,-85.08C1373,-100.75 1373,-120.8 1373,-120.8 1373,-120.8 1654.16,-120.8 1654.16,-120.8"/>
<polygon fill="black" stroke="black" points="1654.16,-124.3 1664.16,-120.8 1654.16,-117.3 1654.16,-124.3"/>
</g>
<!-- ProdutosComponent -->
<g id="node15" class="node">
<title>ProdutosComponent</title>
<polygon fill="#ffffb3" stroke="black" points="1292.62,-84.8 1161.38,-84.8 1161.38,-48.8 1292.62,-48.8 1292.62,-84.8"/>
<text text-anchor="middle" x="1227" y="-62.6" font-family="Times,serif" font-size="14.00">ProdutosComponent</text>
</g>
<!-- ProdutosComponent&#45;&gt;AppModule -->
<g id="edge15" class="edge">
<title>ProdutosComponent&#45;&gt;AppModule</title>
<path fill="none" stroke="black" d="M1227,-84.84C1227,-101.53 1227,-123.8 1227,-123.8 1227,-123.8 1654.33,-123.8 1654.33,-123.8"/>
<polygon fill="black" stroke="black" points="1654.33,-127.3 1664.33,-123.8 1654.33,-120.3 1654.33,-127.3"/>
</g>
<!-- ProdutosEditComponent -->
<g id="node16" class="node">
<title>ProdutosEditComponent</title>
<polygon fill="#ffffb3" stroke="black" points="1143.45,-84.8 988.55,-84.8 988.55,-48.8 1143.45,-48.8 1143.45,-84.8"/>
<text text-anchor="middle" x="1066" y="-62.6" font-family="Times,serif" font-size="14.00">ProdutosEditComponent</text>
</g>
<!-- ProdutosEditComponent&#45;&gt;AppModule -->
<g id="edge16" class="edge">
<title>ProdutosEditComponent&#45;&gt;AppModule</title>
<path fill="none" stroke="black" d="M1066,-85.1C1066,-103.07 1066,-127.8 1066,-127.8 1066,-127.8 1654.01,-127.8 1654.01,-127.8"/>
<polygon fill="black" stroke="black" points="1654.01,-131.3 1664.01,-127.8 1654.01,-124.3 1654.01,-131.3"/>
</g>
<!-- ProdutosListaComponent -->
<g id="node17" class="node">
<title>ProdutosListaComponent</title>
<polygon fill="#ffffb3" stroke="black" points="970.61,-84.8 811.39,-84.8 811.39,-48.8 970.61,-48.8 970.61,-84.8"/>
<text text-anchor="middle" x="891" y="-62.6" font-family="Times,serif" font-size="14.00">ProdutosListaComponent</text>
</g>
<!-- ProdutosListaComponent&#45;&gt;AppModule -->
<g id="edge17" class="edge">
<title>ProdutosListaComponent&#45;&gt;AppModule</title>
<path fill="none" stroke="black" d="M891,-84.97C891,-103.89 891,-130.8 891,-130.8 891,-130.8 1654.18,-130.8 1654.18,-130.8"/>
<polygon fill="black" stroke="black" points="1654.18,-134.3 1664.18,-130.8 1654.18,-127.3 1654.18,-134.3"/>
</g>
<!-- SobreComponent -->
<g id="node18" class="node">
<title>SobreComponent</title>
<polygon fill="#ffffb3" stroke="black" points="792.99,-84.8 679.01,-84.8 679.01,-48.8 792.99,-48.8 792.99,-84.8"/>
<text text-anchor="middle" x="736" y="-62.6" font-family="Times,serif" font-size="14.00">SobreComponent</text>
</g>
<!-- SobreComponent&#45;&gt;AppModule -->
<g id="edge18" class="edge">
<title>SobreComponent&#45;&gt;AppModule</title>
<path fill="none" stroke="black" d="M736,-85.11C736,-104.95 736,-133.8 736,-133.8 736,-133.8 1654.32,-133.8 1654.32,-133.8"/>
<polygon fill="black" stroke="black" points="1654.32,-137.3 1664.32,-133.8 1654.32,-130.3 1654.32,-137.3"/>
</g>
<!-- TemplateComponent -->
<g id="node19" class="node">
<title>TemplateComponent</title>
<polygon fill="#ffffb3" stroke="black" points="661.19,-84.8 526.81,-84.8 526.81,-48.8 661.19,-48.8 661.19,-84.8"/>
<text text-anchor="middle" x="594" y="-62.6" font-family="Times,serif" font-size="14.00">TemplateComponent</text>
</g>
<!-- TemplateComponent&#45;&gt;AppModule -->
<g id="edge19" class="edge">
<title>TemplateComponent&#45;&gt;AppModule</title>
<path fill="none" stroke="black" d="M594,-84.83C594,-105.57 594,-136.8 594,-136.8 594,-136.8 1654.1,-136.8 1654.1,-136.8"/>
<polygon fill="black" stroke="black" points="1654.1,-140.3 1664.1,-136.8 1654.1,-133.3 1654.1,-140.3"/>
</g>
<!-- TodosProdutosComponent -->
<g id="node20" class="node">
<title>TodosProdutosComponent</title>
<polygon fill="#ffffb3" stroke="black" points="509.12,-84.8 342.88,-84.8 342.88,-48.8 509.12,-48.8 509.12,-84.8"/>
<text text-anchor="middle" x="426" y="-62.6" font-family="Times,serif" font-size="14.00">TodosProdutosComponent</text>
</g>
<!-- TodosProdutosComponent&#45;&gt;AppModule -->
<g id="edge20" class="edge">
<title>TodosProdutosComponent&#45;&gt;AppModule</title>
<path fill="none" stroke="black" d="M426,-85.09C426,-107.01 426,-140.8 426,-140.8 426,-140.8 1654.14,-140.8 1654.14,-140.8"/>
<polygon fill="black" stroke="black" points="1654.14,-144.3 1664.14,-140.8 1654.14,-137.3 1654.14,-144.3"/>
</g>
<!-- UsuarioEditComponent -->
<g id="node21" class="node">
<title>UsuarioEditComponent</title>
<polygon fill="#ffffb3" stroke="black" points="324.49,-84.8 175.51,-84.8 175.51,-48.8 324.49,-48.8 324.49,-84.8"/>
<text text-anchor="middle" x="250" y="-62.6" font-family="Times,serif" font-size="14.00">UsuarioEditComponent</text>
</g>
<!-- UsuarioEditComponent&#45;&gt;AppModule -->
<g id="edge21" class="edge">
<title>UsuarioEditComponent&#45;&gt;AppModule</title>
<path fill="none" stroke="black" d="M250,-85.05C250,-107.82 250,-143.8 250,-143.8 250,-143.8 1653.99,-143.8 1653.99,-143.8"/>
<polygon fill="black" stroke="black" points="1654,-147.3 1663.99,-143.8 1653.99,-140.3 1654,-147.3"/>
</g>
<!-- AppComponent  -->
<g id="node24" class="node">
<title>AppComponent </title>
<polygon fill="#80b1d3" stroke="black" points="1760.44,-214.8 1651.56,-214.8 1651.56,-178.8 1760.44,-178.8 1760.44,-214.8"/>
<text text-anchor="middle" x="1706" y="-192.6" font-family="Times,serif" font-size="14.00">AppComponent </text>
</g>
<!-- AppModule&#45;&gt;AppComponent  -->
<g id="edge23" class="edge">
<title>AppModule&#45;&gt;AppComponent </title>
<path fill="none" stroke="black" stroke-dasharray="1,5" d="M1706,-149.91C1706,-149.91 1706,-168.79 1706,-168.79"/>
<polygon fill="black" stroke="black" points="1702.5,-168.79 1706,-178.79 1709.5,-168.79 1702.5,-168.79"/>
</g>
<!-- AppRoutingModule -->
<g id="node23" class="node">
<title>AppRoutingModule</title>
<polygon fill="#8dd3c7" stroke="black" points="152.28,-84.8 149.28,-88.8 128.28,-88.8 125.28,-84.8 23.72,-84.8 23.72,-48.8 152.28,-48.8 152.28,-84.8"/>
<text text-anchor="middle" x="88" y="-62.6" font-family="Times,serif" font-size="14.00">AppRoutingModule</text>
</g>
<!-- AppRoutingModule&#45;&gt;AppModule -->
<g id="edge22" class="edge">
<title>AppRoutingModule&#45;&gt;AppModule</title>
<path fill="none" stroke="black" d="M88,-84.95C88,-108.56 88,-146.8 88,-146.8 88,-146.8 1653.97,-146.8 1653.97,-146.8"/>
<polygon fill="black" stroke="black" points="1653.97,-150.3 1663.97,-146.8 1653.97,-143.3 1653.97,-150.3"/>
</g>
</g>
</svg>
